<?xml version="1.0" encoding="UTF-8"?>
<svg xmlns="http://www.w3.org/2000/svg" width="154.95" height="27.983" viewBox="0 0 154.95 27.983">
  <g transform="translate(-387.684 -328.752)">
    <path d="M387.684,356.808V329.826c3.388,0,7.044-.038,10.431,0,5.427,0,9.354,3.772,9.354,8.968s-3.926,8.892-9.354,8.892h-8.506v9.122Zm10.431-10.931c4.157,0,7.429-2.848,7.429-7.121s-3.156-7.159-7.429-7.159h-8.506v14.28Z" transform="translate(0 -0.458)" fill="#fff"></path>
    <path d="M433.664,355.08h13.395v1.771H431.7V329.907h1.963Z" transform="translate(-19.07 -0.5)" fill="#fff"></path>
    <path d="M464.443,347.613V329.907h1.924v17.667c0,4.965,3.349,7.814,8.2,7.814,4.812,0,8.121-2.849,8.121-7.814V329.907h1.886v17.706c0,6-4.119,9.584-10.008,9.584C468.638,357.2,464.443,353.618,464.443,347.613Z" transform="translate(-33.256 -0.5)" fill="#fff"></path>
    <path d="M511.346,349.483c.308,4.234,5.274,5.735,8.93,5.735,3.887,0,8.275-1.809,8.391-6.043.116-4.542-4.426-5.081-8.622-5.7-4.927-.615-9.815-1.424-9.815-6.813,0-5.158,5.12-7.505,9.623-7.505,5,0,9.7,1.963,10.007,7.044h-1.809c-.308-4.157-4.812-5.312-8.2-5.312-3.772,0-7.66,1.693-7.66,5.735,0,4.465,4.619,4.773,8.161,5.2,5.2.731,10.354,1.771,10.238,7.39-.116,5.312-5.234,7.7-10.238,7.7-4.927,0-10.432-2.079-10.739-7.429Z" transform="translate(-52.826 -0.177)" fill="#fff"></path>
    <path d="M556.806,356.35l6.428-10.161a3.907,3.907,0,0,1-1.5.346c-5.543.193-9.392-3.041-9.392-8.7,0-6.158,4.465-9.084,10.2-9.084,5.7,0,10.162,2.926,10.162,9.084a10.693,10.693,0,0,1-1.848,5.928L563.08,356.35Zm1.232-18.514c0,2.771,1.732,4.311,4.5,4.311s4.465-1.54,4.465-4.311c0-2.733-1.694-4.2-4.465-4.2S558.037,335.1,558.037,337.836Z" transform="translate(-71.338 0)" fill="#fff"></path>
    <path d="M612.663,330.715l-11.47,26.135h-5.812l9.546-21.939H593.572v-5h19.091Z" transform="translate(-89.201 -0.5)" fill="#fff"></path>
    <path d="M639.214,334.087a3.113,3.113,0,0,0-3.349,3.425h-4.927c0-5.273,3.156-8.352,8.43-8.352,7.621,0,10.507,7.7,5.157,14.819-.808,1.117-2,3.118-5.427,7.544h8.776v5H630.592V355.3l9.546-13.395a9.427,9.427,0,0,0,2.04-4.465A2.927,2.927,0,0,0,639.214,334.087Z" transform="translate(-105.24 -0.177)" fill="#fff"></path>
  </g>
</svg>
